<mxfile host="Electron" agent="Mozilla/5.0 (Windows NT 10.0; Win64; x64) AppleWebKit/537.36 (KHTML, like Gecko) draw.io/28.2.8 Chrome/140.0.7339.240 Electron/38.4.0 Safari/537.36" version="28.2.8">
  <diagram name="Page-1" id="FQ2UC88mQfjDOQMs-G9_">
    <mxGraphModel dx="1426" dy="841" grid="1" gridSize="10" guides="1" tooltips="1" connect="1" arrows="1" fold="1" page="1" pageScale="1" pageWidth="850" pageHeight="1100" math="0" shadow="0">
      <root>
        <mxCell id="0" />
        <mxCell id="1" parent="0" />
        <mxCell id="Crho0gdngUurr0KS9DwO-6" value="" style="edgeStyle=orthogonalEdgeStyle;rounded=0;orthogonalLoop=1;jettySize=auto;html=1;" edge="1" parent="1" source="Crho0gdngUurr0KS9DwO-1" target="Crho0gdngUurr0KS9DwO-2">
          <mxGeometry relative="1" as="geometry" />
        </mxCell>
        <mxCell id="Crho0gdngUurr0KS9DwO-1" value="Actor" style="shape=umlActor;verticalLabelPosition=bottom;verticalAlign=top;html=1;outlineConnect=0;" vertex="1" parent="1">
          <mxGeometry x="365" y="250" width="30" height="50" as="geometry" />
        </mxCell>
        <mxCell id="Crho0gdngUurr0KS9DwO-2" value="Đặt hàng" style="ellipse;whiteSpace=wrap;html=1;" vertex="1" parent="1">
          <mxGeometry x="320" y="390" width="120" height="80" as="geometry" />
        </mxCell>
        <mxCell id="Crho0gdngUurr0KS9DwO-4" value="tính phí vận chuyển" style="ellipse;whiteSpace=wrap;html=1;" vertex="1" parent="1">
          <mxGeometry x="470" y="560" width="120" height="80" as="geometry" />
        </mxCell>
        <mxCell id="Crho0gdngUurr0KS9DwO-5" value="kiểm tra giỏ hàng&amp;nbsp;" style="ellipse;whiteSpace=wrap;html=1;" vertex="1" parent="1">
          <mxGeometry x="200" y="560" width="120" height="80" as="geometry" />
        </mxCell>
        <mxCell id="Crho0gdngUurr0KS9DwO-8" style="rounded=0;orthogonalLoop=1;jettySize=auto;html=1;entryX=0.317;entryY=1.013;entryDx=0;entryDy=0;entryPerimeter=0;" edge="1" parent="1" source="Crho0gdngUurr0KS9DwO-5" target="Crho0gdngUurr0KS9DwO-2">
          <mxGeometry relative="1" as="geometry" />
        </mxCell>
        <mxCell id="Crho0gdngUurr0KS9DwO-9" value="include" style="text;html=1;whiteSpace=wrap;strokeColor=none;fillColor=none;align=center;verticalAlign=middle;rounded=0;" vertex="1" parent="1">
          <mxGeometry x="260" y="490" width="60" height="30" as="geometry" />
        </mxCell>
        <mxCell id="Crho0gdngUurr0KS9DwO-11" style="rounded=0;orthogonalLoop=1;jettySize=auto;html=1;entryX=0.667;entryY=1;entryDx=0;entryDy=0;entryPerimeter=0;exitX=0;exitY=0;exitDx=0;exitDy=0;" edge="1" parent="1" source="Crho0gdngUurr0KS9DwO-4" target="Crho0gdngUurr0KS9DwO-2">
          <mxGeometry relative="1" as="geometry">
            <mxPoint x="440" y="573" as="sourcePoint" />
            <mxPoint x="511" y="480" as="targetPoint" />
          </mxGeometry>
        </mxCell>
        <mxCell id="Crho0gdngUurr0KS9DwO-12" value="include" style="text;html=1;whiteSpace=wrap;strokeColor=none;fillColor=none;align=center;verticalAlign=middle;rounded=0;" vertex="1" parent="1">
          <mxGeometry x="440" y="500" width="60" height="30" as="geometry" />
        </mxCell>
      </root>
    </mxGraphModel>
  </diagram>
</mxfile>
